<?xml version="1.0" encoding="UTF-8"?>
<svg version="1.1" viewBox="0 0 1080 1080" width="1080" height="1080" xmlns="http://www.w3.org/2000/svg">
<path transform="translate(17,3)" d="m0 0 7 3 15 8 142 71 19 10 5 4 12 38 14 45 15 45 8-2 50-16 38-13 17-5 27-9h5l3 7 20 61 16 50 7 21 2 5 10-3 36-12 35-12 40-13 11-4 6 1 28 15 23 12 19 10 22 12 22 11 16 9 46 23-1 3-21 6-29 10-26 10-17 6-8 3-7-1-16-8-19-9-20-11-5-3v-4l10-4 28-8h2v-3l-7-2-44-24-8 1-34 12-30 10-40 14-42 15-11 4-4-1-8-23-7-19-10-29-20-57-4-12-5 1-16 5-42 13-22 7-45 14-9 3-4-1-3-8-8-25-22-68-16-49-5-15-23-11-15-8-14-7 6 23 4 13v4l-5-2-23-11-40-20-9-30-7-22-6-21-8-25z" fill="#C005CC"/>
<path transform="translate(525,493)" d="m0 0 5 1 56 28 13 7-8 18-6-1-19-10-24-12h-3l-9 17v2l21 10 22 11-1 6-6 12-6-1-15-8-16-8-10-4-1 4-7 14v4l23 11 26 13 1 3-7 14-2 3 8 4v-3l15-8 16-8 25-13h2l-2-14-7-44v-6l5 1 15 8 5 3 2 7 4 28v6l7-3 14-8 14-7 4-1 23 11 19 10 6 3v19l-4 60-1 4 10-8 9-8 11-9 14-12 13-11 5-4 7 1 16 8 1 2-5 5h-2v2l-10 8-11 9-14 12-11 9-26 22-9 7h-5l-17-9-2-2 5-90 2-25-9 3-29 15-17 9h-2l7 45 3 19-2 16-4 26v6l29-29 4 1 8 4-1 4-43 43-14-7 1-10 4-27v-4l-28 28-6-1-8-4v-11l7-46 1-7 3-1 11 6-1 12-5 31 5-5h2l2-4 6-5 6-7 7-6 1-2 8 1-18-10-2-4-5-36v-5l-27 15-11 6-5-1-13-6 9 6 7 6 6 11v16l-6 12-9 8-10 3h-10l-12-4-24-12-1-2 8-16 9-17 9-19 2-3-15-8-28-14-25-12 1-6 10-19 20-40 10-19zm24 132m14 8m-10 10-6 11-10 19 1 4 13 6 4 1h7l6-3 6-7 2-4v-10l-5-8-11-7-4-2z" fill="#C109CD"/>
<path transform="translate(513,371)" d="m0 0 6 1 29 15 19 10 27 14 17 9-1 3-59 20-43 15-41 14-23 8h-2l9 42 1 4 4-6 11-23 12-24 2-2 5 1 17 9-2 6-45 90 1 3 2 1-1 36-1 22-1 9-5-1-9-5 1-15-6-2-16-8-5 1-7 6-6-1-8-5 5-6 14-11 13-11 14-11 7-4-11-6-3-9-13-58-2-10v-4h-2l-2 5-16 32-8 17-2 2-4-1-6-3-1 5-8 16v2l22 11 4-5 7-14h4l8 4 1 4-26 52-4-1-9-4 1-7 8-15v-2l-20-10-4-1-3 9-6 12-5-1-9-5 2-6 12-23 13-26 4-10 9-17 11-23 11-21 9-19 4-8h2l2-6 32-9 24-6h3l-3-3-16-8-11-6v-3l15-6 17-6zm-63 205m-5 16-10 9-6 5v2l13 7h2l1-2 1-21z" fill="#C005CC"/>
<path transform="translate(180,357)" d="m0 0h2l10 31 12 37 24 72 9-2 38-13 33-11 41-14 15-5h4l-2 5-17 35-10 21-3 3-43 14-45 15-41 14-9 3h-3l-8-22-10-29-8-24-14-40-8-24 2-6 10-19 20-40z" fill="#C005CC"/>
<path transform="translate(326,298)" d="m0 0h4l7 22 12 40 12 39-1 3-44 14-3-1-6-19-3 4-14 28-7 3-18 5-5-1-10-31 1-6 6-10 5-10 1-4-17 7h-3l-17-46v-4l31-10 51-17z" fill="#C005CC"/>
<path transform="translate(847,655)" d="m0 0 6 1 17 9 1 1-2 50-3 67-8-1-5 10-5-1-15-8-10-4-2 7-1 4 21 10 2 2-1 5-3 5-5-1-17-9-4-1-4 8-1 4 6 2 21 10 1 4-4 8-5-1-17-9-19-9-2-4 9-17 8-16 8-17 4-3 23 12 9 4-8-5v-25l-42-21-5 3-10 9-5 3 5 4 9 7 4 6 1 3v10l-3 8-5 5-5 3-8 2 3 21-3 1-11-5-2-8-2-13-9-5h-2l-6 13-6-1-8-4 2-6 24-48v-4l2-4 5-4h2v-2l9-7 16-13 11-9 6-5h2v-2l13-10 17-14zm-1 29-11 10-2 1v2l-4 2-13 11v2l16 8 9 5h4l1-2 2-30v-9zm-69 56m-10 11-7 12-1 6 11 5 8 1 4-2 3-6-1-6-5-5-9-5zm85 27 1 2 2-1z" fill="#C008CD"/>
<path transform="translate(61,148)" d="m0 0 6 1 19 10 23 11 16 8 5 5 24 75 13 42 1 7-19 38-9 17-5 10h-2l-8-25-12-37-10-30-10-31-12-38-10-31-10-30z" fill="#C006CD"/>
<path transform="translate(525,493)" d="m0 0 5 1 56 28 13 7-8 18-6-1-19-10-24-12h-3l-9 17v2l21 10 22 11-1 6-6 12-6-1-15-8-16-8-10-4-1 4-7 14v4l23 11 26 13 1 3-7 14-4 2-16-8-18-10-28-13-10-5 1-6 10-19 20-40 10-19z" fill="#C008CD"/>
<path transform="translate(703,582)" d="m0 0 5 1 15 8 4 2v19l-4 60-1 4 10-8 9-8 11-9 14-12 13-11 5-4 7 1 16 8 1 2-5 5h-2v2l-10 8-11 9-14 12-11 9-26 22-9 7h-5l-17-9-2-2 5-90z" fill="#C008CD"/>
<path transform="translate(605,655)" d="m0 0 6 2 7 4-1 12-5 31 5-5h2l2-4 6-5 6-7 7-6 1-2 11 1 3 2-1 12-4 26v6l29-29 4 1 8 4-1 4-43 43-14-7 1-10 4-27v-4l-28 28-6-1-8-4v-11l7-46 1-7z" fill="#C20ECE"/>
<path transform="translate(547,624)" d="m0 0h2l4 4 4 2 6 1 2 2 5 4 10 6 6 7 4 8v16l-6 12-9 8-10 3h-10l-12-4-24-12-1-2 8-16 9-17 9-19zm6 19-6 11-10 19 1 4 13 6 4 1h7l6-3 6-7 2-4v-10l-5-8-11-7-4-2z" fill="#C20ECE"/>
<path transform="translate(760,731)" d="m0 0 6 2 12 6 5 5 9 6 5 6 2 5v10l-3 8-5 5-5 3-8 2 3 21-3 1-11-5-2-8-2-13-9-5h-2l-6 13-6-1-8-4 2-6 24-48zm7 20-7 12-1 6 11 5 8 1 4-2 3-6-1-6-5-5-9-5z" fill="#C311CF"/>
<path transform="translate(489,597)" d="m0 0 6 2 24 13 7 8 2 5v12l-6 10-6 4-9 1 3 23-5-1-9-5-1-1-3-20-8-4-3 1-6 12-2 1-11-6 1-5 24-48zm7 17-8 15 1 5 11 5h8l5-4 1-9-2-4-10-6z" fill="#C10BCE"/>
<path transform="translate(367,534)" d="m0 0 6 2 6 3v5l-9 17v2l22 11 4-5 7-14h4l8 4 1 4-26 52-4-1-9-4 1-7 8-15v-2l-20-10-4-1-3 9-6 12-5-1-9-5 2-6 12-23 13-26z" fill="#C313CF"/>
<path transform="translate(817,761)" d="m0 0 16 8 19 9 7 2-6 12-5-1-15-8-10-4-2 7-1 4 21 10 2 2-1 5-3 5-5-1-17-9-4-1-4 8-1 4 6 2 21 10 1 4-4 8-5-1-17-9-19-9-2-4 9-17 8-16 8-17z" fill="#C311CF"/>
<path transform="translate(716,712)" d="m0 0 5 1 9 5-1 29-2 37-5-1-8-4-1-1v-14l-17-9-5-2-4 1-8 7-5-2-8-4 1-4 14-11 16-13 14-11zm-1 17-10 9-6 5 4 3 10 5h2l2-22z" fill="#C312CF"/>
<path transform="translate(449,575)" d="m0 0 6 2 4 4-1 36-1 22-1 9-5-1-9-5 1-15-6-2-16-8-5 1-7 6-6-1-8-5 5-6 14-11 13-11 14-11 4-3zm1 1m-5 16-10 9-6 5v2l13 7h2l1-2 1-21z" fill="#C210CF"/>

</svg>
